<?xml version="1.0" encoding="utf-8"?>
<!-- Generator: Adobe Illustrator 16.0.0, SVG Export Plug-In . SVG Version: 6.00 Build 0)  -->
<!DOCTYPE svg PUBLIC "-//W3C//DTD SVG 1.1//EN" "http://www.w3.org/Graphics/SVG/1.1/DTD/svg11.dtd">
<svg version="1.1" id="レイヤー_1" xmlns="http://www.w3.org/2000/svg" xmlns:xlink="http://www.w3.org/1999/xlink" x="0px"
	 y="0px" width="225.705px" height="43.683px" viewBox="0 0 225.705 43.683" enable-background="new 0 0 225.705 43.683"
	 xml:space="preserve">
<g>
	<path d="M8.936,17.611H2.904c0.268,0.916,0.402,1.72,0.67,2.659c0.134,0.514,0,0.648-0.536,0.648c-0.647,0-1.184,0-1.72,0.134
		c-0.537,0-0.938-0.268-0.938-0.782C0.268,19.331,0.134,18.415,0,17.499c0-0.424,0.134-0.536,0.648-0.536h4.513
		c-0.134-0.916-0.134-1.608-0.134-2.39c-0.134-0.67,0.134-0.938,0.782-0.782h1.362c0.514,0.111,0.76,0.268,0.648,0.782v2.39
		c1.05,0,2.011-0.134,3.038,0c0.938,0,1.073,0.112,1.073,1.028c-0.134,2.524-0.648,4.781-1.988,6.881
		c-1.207,2.1-3.195,2.926-5.585,2.792c-0.269,0-0.38-0.134-0.514-0.268c0.134,0,0.245-0.157,0.402-0.268
		C7.439,25.72,9.427,21.476,8.936,17.611z"/>
	<path d="M31.967,20.56c0.492,0,0.827-0.022,0.961-0.045c0.089-0.045,0.223-0.201,0.29-0.425c0.179-0.514,0.961-0.938,1.475-0.804
		c0.514,0.134,1.162,0.938,1.14,1.251c-0.09,0.558-1.185,0.871-3.195,0.916l-1.921,0.067l-0.335,0.849
		c-0.402,1.073-1.542,2.971-2.413,4.111c-0.425,0.559-0.693,0.804-0.805,0.715c0,0-0.022,0-0.111,0.044
		c-0.089,0.045-0.179,0.134-0.313,0.201c-0.112,0.089-0.291,0.268-0.558,0.536c-0.537,0.447-1.05,0.648-1.452,0.291
		c-0.402-0.38-0.402-0.625-0.023-0.782c0.693-0.291,1.52-1.117,1.43-1.363c-0.022-0.089,0.067-0.201,0.268-0.269
		c0.179-0.044,0.335-0.268,0.514-0.603c0.313-0.692,0.983-2.882,1.14-3.932c-1.72,0.022-3.039,0-3.999-0.089
		c-0.938-0.112-1.497-0.179-1.698-0.224c-0.425-0.111-0.938-0.692-0.871-0.759c0.044-0.022,0.245-0.022,0.625,0h0.268
		c0.693,0.089,2.592,0.134,5.742,0.156c-0.089-1.698-0.156-2.614-0.246-2.837c-0.067-0.044-0.357,0-0.826,0.089
		c-0.938,0.201-3.463,0.604-3.664,0.537c-0.179-0.067-0.514-0.67-0.67-0.961h0.558c0.447,0,0.537-0.067,0.447-0.38
		c-0.067-0.335-0.022-0.424,0.424-0.514c1.497-0.357,3.016-0.782,4.625-1.296c1.586-0.536,2.502-0.826,2.748-0.849
		c0.425-0.022,0.871,0.246,1.184,0.894c0.112,0.201,0.156,0.335,0.156,0.402c0,0.067-0.134,0.224-0.402,0.425
		c-0.269,0.201-1.117,0.536-2.547,1.027l0.536,0.805c0.112,0.178,0.291,0.514,0.335,0.938l0.067,1.877H31.967z"/>
	<path d="M56.965,18.08c0.938,1.854,1.162,3.887,0.447,5.339c-0.715,1.43-1.698,2.413-2.525,2.413c-0.313,0-1.407-0.581-1.407-0.76
		c0-0.089,0.067-0.156,0.179-0.201c0.134-0.045,0.224-0.224,0.335-0.492c0.268-0.625,0.424-1.497,0.625-2.792
		c0.201-1.318-0.067-3.708-0.38-4.513c-0.156-0.357-0.357-0.67-0.581-0.849c-0.268-0.179-0.469-0.223-0.559-0.156
		c-0.067,0.089-0.134,0.827-0.223,2.211c-0.179,2.748-0.492,3.82-1.162,5.094c-0.67,1.251-1.564,1.988-2.212,2.189
		c-0.647,0.201-2.189-0.246-2.882-0.581c-0.737-0.357-1.743-1.675-1.921-2.078c-0.201-0.447-0.357-1.139-0.269-1.81
		c0.089-0.692,0.357-1.318,0.938-2.546c0.581-1.229,1.519-2.368,2.569-3.039c0.559-0.357,1.05-0.536,1.497-0.603
		c0.424-0.067,0.715-0.201,0.827-0.402c0.246-0.425,0.603-0.626,1.497-0.402c0.424,0.112,0.804,0.335,1.184,0.625
		c0.357,0.268,0.581,0.402,0.715,0.402C54.329,15.131,56.429,17.008,56.965,18.08z M49.838,23.419
		c0.134-0.402,0.246-3.15,0.224-5.049l-0.022-1.63l-0.559,0.335c-1.43,0.849-2.145,2.413-2.278,4.602
		c-0.089,1.43,0.156,2.636,0.469,2.904c0.358,0.313,1.095-0.022,1.698-0.469C49.637,23.844,49.771,23.598,49.838,23.419z"/>
	<path d="M78.553,10.42c2.38,0,5.196,1.745,5.196,3.411c0,0.357,0.079,0.516,0.198,0.555l0.119-0.079
		c0.317-0.317,9.598-6.624,7.02-6.782c0-0.278-4.72-0.635-8.964-0.873c-4.244-0.199-6.822-0.437-7.615-0.556
		c-1.705-0.198-2.975-1.348-2.657-1.546c0.119-0.119,0.396-0.119,0.912-0.08c0.516,0.04,2.776,0.198,6.901,0.357
		c4.085,0.159,6.465,0.278,6.98,0.436c0.516,0.159,1.864,0.278,4.046,0.556c2.142,0.277,3.53,0.396,4.204,0.555
		c1.309,0.278,2.896,1.229,2.896,2.102s-6.703,7.457-8.012,8.052c-0.357,0.198-1.229,0.396-2.499,0.634
		c-1.269,0.238-2.023,0.396-2.3,0.516c-0.317,0.159-0.556,0.159-0.674,0c-0.357-0.595-0.753-0.277-1.15,0.991
		c-1.15,4.085-1.626,4.76-4.323,7.457l-2.618,2.578c-0.119-0.04-0.396-0.198-0.793-0.436c-0.873-0.476-1.349-1.031-0.992-1.825
		c0.198-0.476,0.516-0.913,0.912-1.269c0.476-0.476,0.833-1.428,1.071-2.856c0.556-2.816,2.023-9.36,2.34-10.47
		c-0.397-0.278-1.031-0.754-1.785-1.428H78.553z"/>
	<path d="M101.448,41.568c4.165-2.3,11.7-10.272,10.907-16.816c-1.19,0-4.759-0.714-5.95-0.714c-0.436,0-0.674,0.476-0.952,0.754
		c-0.674,1.11-1.388,2.062-2.3,3.252c-1.468,1.586-3.292,1.825-5.156,1.388c-0.476,0-0.992-0.516-1.428-0.912
		c0.952-0.753,1.626-1.19,2.102-1.904c1.428-1.625,2.102-3.728,1.825-5.83c0-1.428,0.515-1.626,1.705-1.626
		c0.437,0,0.714,0.198,1.15,0.198c2.816,0.238,2.816,0.238,3.054,3.292h1.428c2.579,0.238,5.117,0.238,7.774,0.437
		c0.913,0,1.349,0.238,1.349,1.428c0,5.354-1.864,10.272-5.592,14.04c-2.38,2.102-4.958,3.966-8.448,3.728
		c-0.476,0-1.229,0-1.666-0.277C101.25,41.846,101.448,41.846,101.448,41.568z"/>
	<path d="M128.981,14.943c2.38,0,5.196,1.746,5.196,3.411c0,0.357,0.08,0.516,0.199,0.555l0.119-0.079
		c0.317-0.317,9.598-6.624,7.02-6.782c0-0.278-4.72-0.635-8.963-0.873c-4.244-0.199-6.822-0.436-7.615-0.556
		c-1.706-0.198-2.975-1.348-2.657-1.546c0.119-0.119,0.396-0.119,0.912-0.08c0.515,0.04,2.776,0.198,6.901,0.357
		c4.085,0.159,6.465,0.278,6.98,0.437c0.516,0.159,1.864,0.278,4.046,0.555c2.142,0.277,3.53,0.397,4.204,0.555
		c1.309,0.278,2.896,1.229,2.896,2.102c0,0.873-6.703,7.457-8.012,8.052c-0.357,0.198-1.229,0.396-2.499,0.634
		c-1.269,0.238-2.022,0.396-2.3,0.516c-0.317,0.159-0.555,0.159-0.674,0c-0.356-0.595-0.753-0.277-1.15,0.991
		c-1.15,4.085-1.626,4.76-4.323,7.457l-2.618,2.578c-0.119-0.04-0.397-0.198-0.793-0.436c-0.873-0.476-1.349-1.031-0.992-1.825
		c0.198-0.476,0.516-0.912,0.913-1.269c0.476-0.476,0.833-1.428,1.071-2.855c0.555-2.816,2.022-9.36,2.34-10.471
		c-0.396-0.278-1.031-0.754-1.785-1.428H128.981z"/>
	<path d="M153.938,32.72c-0.595,0.08-0.833,0.238-0.873,0.357c0,0.119-0.08,0.198-0.199,0.238c-0.357,0-0.991,0-1.626-0.396
		c-0.277-0.198-0.555-0.396-0.674-0.674c-0.119-0.357-0.238-1.15-0.357-2.618c-0.159-1.467-0.238-3.411-0.159-5.75l0.119-3.689
		l1.943,0.199c2.102,0.159,4.76,1.031,4.998,1.388c0.159,0.238,0.079,0.556-0.119,1.031c-0.476,0.992-1.586,5.592-1.546,6.941
		C155.445,31.49,154.969,32.522,153.938,32.72z M164.726,41.248c0,0.595-1.666,2.142-2.102,2.38c-0.198,0.08-0.635,0.08-1.269-0.04
		c-1.547-0.277-3.213-0.317-5.038,0c-1.071,0.159-1.507,0.12-2.855-0.555c-1.388-0.674-1.15-1.11-0.159-0.912
		c0.516,0.159,2.419-0.159,5.672-0.873c1.11-0.317,3.451-2.539,4.085-4.085c0.674-1.586,0.991-3.966,0.674-4.362
		c-0.159-0.159-0.238-0.714-0.317-1.706l-0.317-5.077c-0.119-2.419-0.277-3.808-0.356-4.165c-0.08-0.317-0.357-0.556-0.833-0.793
		c-0.992-0.397-0.357-0.913,0.119-0.873c0.198,0.04,0.753,0.278,1.666,0.595c0.912,0.317,1.626,0.555,2.221,0.793
		c0.555,0.198,0.873,0.437,0.991,0.635c0.199,0.238,0.516,0.396,1.031,0.595c0.556,0.159,0.873,0.556,1.071,1.111
		c0.159,0.595,0.159,1.904,0,4.005c-0.397,4.323-2.539,12.256-3.808,12.732C164.845,40.771,164.726,40.97,164.726,41.248z"/>
	<path d="M186.581,11.069h-10.709c0.476,1.626,0.714,3.054,1.19,4.72c0.238,0.913,0,1.15-0.952,1.15c-1.15,0-2.102,0-3.054,0.238
		c-0.952,0-1.666-0.476-1.666-1.388c-0.198-1.666-0.436-3.292-0.674-4.918c0-0.753,0.238-0.952,1.15-0.952h8.011
		c-0.238-1.626-0.238-2.856-0.238-4.244c-0.238-1.19,0.238-1.666,1.388-1.388h2.419c0.912,0.198,1.349,0.476,1.15,1.388v4.244
		c1.864,0,3.57-0.238,5.394,0c1.666,0,1.904,0.198,1.904,1.824c-0.238,4.482-1.15,8.487-3.53,12.216
		c-2.142,3.728-5.672,5.196-9.915,4.958c-0.476,0-0.675-0.238-0.913-0.476c0.238,0,0.437-0.278,0.714-0.476
		C183.924,25.467,187.454,17.931,186.581,11.069z"/>
	<path d="M218.036,11.819c-0.396-0.634-0.595-0.952-0.555-0.952c0.039,0,0.079-0.04,0.079-0.079c0-0.04,0-0.159-0.04-0.278
		l-0.158-0.516c-0.674-1.547,0.278-1.389,1.428-0.079c0.595,0.634,0.872,1.07,0.912,1.428c0.04,0.317,0.277,0.833,0.833,1.666
		l3.411,5.037c1.229,1.864,1.864,2.697,1.746,2.896c-0.12,0.159-0.397,0.04-0.834-0.198c-0.713-0.516-1.823-1.666-2.975-3.252
		c-1.15-1.626-1.348-1.943-2.498-1.666c-0.595,0.159-3.015,0.952-7.258,2.579c-4.244,1.626-6.664,2.379-7.14,2.34
		c-1.07-0.04-3.768-2.063-4.283-2.579c-0.199-0.277-0.317-0.674-0.317-1.229c0-1.111,2.023-7.417,2.935-9.122
		c0.912-1.626,4.998-7.853,5.553-7.813c0.793,0,4.006,1.586,4.402,1.904c0.159,0.119,0.238,0.595,0.238,1.309
		c0,0.793-0.198,1.587-0.555,2.499c-0.357,0.912-1.071,2.261-2.022,4.045c-0.992,1.824-1.785,3.331-2.419,4.601
		c-0.595,1.309-0.833,1.983-0.635,2.142c0.04,0.039,1.507-0.437,4.363-1.468c2.776-1.07,4.284-1.586,4.442-1.586l2.023-0.675
		L218.036,11.819z"/>
</g>
</svg>
